# xmcd
#
# Track frame offsets:
#	150
#	18737
#	33765
#	52134
#	62675
#	89774
#	105711
#	118921
#	143274
#	160144
#	177107
#	191456
#	203207
#	214459
#
# Disc length: 3079 seconds
#
# Revision: 1
# Processed by: cddbd v1.5.2PL0 Copyright (c) Steve Scherf et al.
# Submitted via: audiograbber 1.83.01
#
DISCID=ca0c050e
DTITLE=DIVINACAFÉ - DOISDEUXTWOZWEIDUOSDÚO
DYEAR=1900
DGENRE=
TTITLE0=ASA BRANCA
TTITLE1=BARBEIRO DE SEVILHA
TTITLE2=PINK PANTHER
TTITLE3=POR UNA CABEZA
TTITLE4=TEMA DE AMOR DE GRABRIELA
TTITLE5=LA BARCA
TTITLE6=HAVA NAGUILA
TTITLE7=MY WAY
TTITLE8=KALINKA
TTITLE9=IL POSTINO
TTITLE10=DANZA RITUAL DEL FUEGO
TTITLE11=BRASILEIRINHO
TTITLE12=I FEEL GOOD
TTITLE13=NEM LUXO NEM LIXO
EXTD=
EXTT0=
EXTT1=
EXTT2=
EXTT3=
EXTT4=
EXTT5=
EXTT6=
EXTT7=
EXTT8=
EXTT9=
EXTT10=
EXTT11=
EXTT12=
EXTT13=
PLAYORDER=
